<svg width="14" height="9" viewBox="0 0 14 9" fill="none" xmlns="http://www.w3.org/2000/svg">
<path id="Combined Shape" fill-rule="evenodd" clip-rule="evenodd" d="M13.6072 2.37504C14.0954 1.88689 14.0954 1.09543 13.6072 0.607274C13.1191 0.119118 12.3276 0.119118 11.8395 0.607274L7.38433 5.0624L2.90241 0.580489C2.41426 0.0923334 1.6228 0.0923337 1.13465 0.580489C0.646492 1.06864 0.646492 1.8601 1.13465 2.34826L6.25092 7.46453C6.30681 7.5669 6.37808 7.66311 6.46473 7.74977C6.88511 8.17015 7.53043 8.22851 8.01326 7.92486C8.10767 7.87087 8.19654 7.80358 8.27714 7.72298C8.31996 7.68017 8.35902 7.63502 8.39432 7.58795L13.6072 2.37504Z" fill="#72E4F9"/>
</svg>
