<svg width="29" height="14" viewBox="0 0 29 14" fill="none" xmlns="http://www.w3.org/2000/svg">
<path id="Vector" d="M22.2 0.430447C20.52 0.430447 18.9333 1.10576 17.8017 2.27549L9.6 9.80036C8.85333 10.5721 7.86167 10.9942 6.8 10.9942C4.61833 10.9942 2.83333 9.17329 2.83333 6.91824C2.83333 4.66319 4.61833 2.84227 6.8 2.84227C7.86167 2.84227 8.85333 3.26433 9.64667 4.08435L10.965 5.29026L12.75 3.67434L11.2567 2.33578C10.6724 1.72961 9.97777 1.24912 9.21282 0.922085C8.44787 0.59505 7.6278 0.427952 6.8 0.430447C3.32333 0.430447 0.5 3.34875 0.5 6.91824C0.5 10.4877 3.32333 13.406 6.8 13.406C8.48 13.406 10.0667 12.7307 11.1983 11.561L19.4 4.03612C20.1467 3.26433 21.1383 2.84227 22.2 2.84227C24.3817 2.84227 26.1667 4.66319 26.1667 6.91824C26.1667 9.17329 24.3817 10.9942 22.2 10.9942C21.15 10.9942 20.1467 10.5721 19.3533 9.75213L18 8.53416L16.25 10.1501L17.7433 11.5007C18.3291 12.1038 19.0244 12.5815 19.7891 12.9064C20.5539 13.2313 21.3732 13.397 22.2 13.394C25.6767 13.394 28.5 10.4877 28.5 6.91824C28.5 3.30051 25.6767 0.430447 22.2 0.430447Z" fill="#0ED2F6"/>
</svg>
