<svg width="29" height="29" viewBox="0 0 29 29" fill="none" xmlns="http://www.w3.org/2000/svg">
<path id="Vector" d="M12.2129 13.4202C13.5933 15.7162 13.3903 18.4182 11.7392 19.5102C10.0881 20.5742 7.62507 19.5802 6.23114 17.2842C4.85074 14.9882 5.06728 12.2582 6.71834 11.1942C8.36941 10.1302 10.8325 11.1242 12.2129 13.4202ZM14.5 22.9682C17.2067 22.9682 17.8833 21.9182 17.8833 21.9182C17.8833 21.9182 17.2067 24.7182 14.5 24.7182C11.7933 24.7182 11.1167 21.9602 11.1167 21.9182C11.1167 21.9182 11.7933 22.9682 14.5 22.9682ZM22.2817 11.1942C23.9327 12.2582 24.1493 14.9882 22.7689 17.2842C21.3749 19.5802 18.9119 20.5742 17.2608 19.5102C15.6097 18.4182 15.4067 15.7162 16.7871 13.4202C18.1675 11.1242 20.6306 10.1302 22.2817 11.1942ZM14.5 26.1182C17.8833 26.1182 25.3267 18.9222 25.3267 13.5182C25.3267 8.11421 20.4682 3.71821 14.5 3.71821C8.53181 3.71821 3.67334 8.11421 3.67334 13.5182C3.67334 18.9222 11.1167 26.1182 14.5 26.1182ZM14.5 0.918213C21.9433 0.918213 28.0333 6.57421 28.0333 13.5182C28.0333 19.2302 20.3464 28.9182 14.5 28.9182C8.65361 28.9182 0.966675 19.2302 0.966675 13.5182C0.966675 6.57421 7.05667 0.918213 14.5 0.918213Z" fill="#0ED2F6"/>
</svg>
