<svg width="29" height="27" viewBox="0 0 29 27" fill="none" xmlns="http://www.w3.org/2000/svg">
<path id="Vector" d="M8.34875 15.8693L12.493 11.7251L3.42842 2.67521C2.72552 1.97231 1.51008 2.16268 1.07077 3.0706C0.031058 5.25253 0.411797 7.93234 2.21299 9.74818L8.34875 15.8693ZM18.2773 13.2188C20.5178 14.2585 23.6662 13.5263 25.9946 11.1979C28.7915 8.40095 29.3333 4.38854 27.1807 2.2359C25.0427 0.0979017 21.0303 0.625079 18.2187 3.42205C15.8903 5.75042 15.1581 8.89884 16.1978 11.1393L2.93053 24.4066C2.65673 24.6805 2.5029 25.0518 2.5029 25.439C2.5029 25.8263 2.65673 26.1976 2.93053 26.4714C3.20434 26.7452 3.5757 26.8991 3.96292 26.8991C4.35015 26.8991 4.72151 26.7452 4.99531 26.4714L14.0598 17.4362L23.1097 26.4861C23.2453 26.6216 23.4062 26.7292 23.5834 26.8026C23.7605 26.8759 23.9504 26.9137 24.1421 26.9137C24.3338 26.9137 24.5237 26.8759 24.7008 26.8026C24.878 26.7292 25.0389 26.6216 25.1745 26.4861C25.3101 26.3505 25.4176 26.1895 25.491 26.0124C25.5644 25.8353 25.6021 25.6454 25.6021 25.4537C25.6021 25.2619 25.5644 25.0721 25.491 24.895C25.4176 24.7178 25.3101 24.5569 25.1745 24.4213L16.1246 15.3714L18.2773 13.2188Z" fill="#0ED2F6"/>
</svg>
